<?xml version="1.0" encoding="UTF-8" standalone="no"?>
<!-- Created with Inkscape (http://www.inkscape.org/) -->

<svg
   width="67.73333mm"
   height="67.73333mm"
   viewBox="0 0 67.73333 67.73333"
   version="1.1"
   id="svg1"
   xml:space="preserve"
   xmlns="http://www.w3.org/2000/svg"
   xmlns:svg="http://www.w3.org/2000/svg"><defs
     id="defs1" /><g
     id="layer1"
     transform="translate(0.00565196,-0.06794421)"><path
       style="fill:#000000"
       d="M 23.058485,64.231681 C 12.82423,62.291568 4.3818087,60.635263 4.2975484,60.551003 4.2132881,60.466742 5.3068972,51.318193 6.7277908,40.220894 L 9.3112337,20.043985 9.7671869,19.39242 10.22314,18.740856 13.697732,17.66055 c 4.137861,-1.286526 3.61537,-0.835025 4.696955,-4.058795 2.19021,-6.5281319 5.153566,-10.64223 9.089462,-12.61911832 l 1.428188,-0.71733791 1.657822,-0.13307406 c 2.072273,-0.16634212 2.79054,0.0113408 3.881314,0.96014789 0.475612,0.4137095 1.33546,0.8386481 1.910775,0.944308 2.430593,0.4463926 4.62268,2.3850141 5.737087,5.073721 l 0.602663,1.4540329 0.672736,-0.1597681 c 0.370005,-0.087872 0.881096,-0.2216688 1.135758,-0.2973251 l 0.46302,-0.1375568 -0.0019,1.9360587 c -10e-4,1.0648328 -0.476149,14.1399648 -1.055793,29.0558488 -0.579644,14.915885 -1.055041,27.506744 -1.056438,27.979686 l -0.0025,0.859896 -0.595313,-0.02106 c -0.327457,-0.01158 -8.968828,-1.60842 -19.203083,-3.548533 z m 3.027414,-7.140193 c 1.983782,-0.58912 3.658509,-1.834366 4.833536,-3.593982 l 1.045971,-1.566353 0.418637,-1.840607 c 0.765193,-3.364299 0.42656,-5.717915 -1.180404,-8.2042 l -1.030581,-1.59451 -2.32187,-1.789551 C 26.57416,37.518032 25.141762,36.317303 24.668082,35.833999 L 23.806847,34.955265 V 33.84235 c 0,-2.769349 3.360423,-3.91618 7.604566,-2.595255 l 1.566295,0.487486 1.140082,-3.464048 c 0.627045,-1.905227 1.187915,-3.592551 1.246377,-3.749609 0.286358,-0.769297 -4.761337,-1.409042 -7.58857,-0.961776 -5.12895,0.811395 -8.835407,3.726881 -10.261765,8.071866 l -0.586152,1.78554 v 2.063978 c 0,1.212133 0.179823,2.602126 0.435702,3.367882 l 0.435701,1.303903 3.108561,3.042708 3.108561,3.042708 0.180726,0.85898 c 0.80094,3.806835 -3.247081,4.664636 -7.731257,1.638302 l -1.204617,-0.812986 -0.187316,0.303083 c -0.103023,0.166695 -0.523161,1.440351 -0.933639,2.830345 l -0.746324,2.527262 0.907056,0.747572 c 3.220041,2.653879 8.209754,3.82295 11.785065,2.761197 z M 23.376426,14.662449 25.459547,13.958568 26.10251,11.720183 C 27.165303,8.0202176 28.953941,5.1759769 31.275494,3.4942521 32.456604,2.6386607 32.223696,2.3227773 30.610158,2.5918846 26.666626,3.2495901 22.249159,8.6708268 20.755189,14.686173 l -0.180708,0.727604 0.359412,-0.02372 c 0.197677,-0.01305 1.296817,-0.34047 2.442533,-0.727604 z m 8.858119,-2.766186 2.750374,-0.841828 -0.166907,-1.9875165 c -0.182459,-2.172699 -0.600245,-3.9718912 -0.922303,-3.9718912 -1.374862,0 -4.524598,4.3772642 -5.21931,7.2533997 l -0.186256,0.771108 0.497014,-0.190722 c 0.273358,-0.104898 1.734683,-0.569545 3.247388,-1.03255 z m 7.69095,-3.8073659 C 39.202479,6.4021707 38.450052,5.4203211 37.506581,4.9324333 L 36.695952,4.5132404 36.88144,5.134863 c 0.102018,0.3418924 0.253829,1.6502879 0.337357,2.9075455 l 0.15187,2.2859235 1.535155,-0.5184306 1.535156,-0.5184302 z m 5.579029,58.3443369 c 10e-4,-0.484505 0.476434,-13.084824 1.056488,-28.000708 0.580054,-14.915885 1.055474,-27.472502 1.056489,-27.903594 l 0.0018,-0.7838043 1.25677,1.2327623 1.256771,1.232761 2.732303,0.185578 2.732304,0.185578 0.37655,0.37655 c 0.207103,0.207103 0.376551,0.536508 0.376551,0.732012 0,0.195503 1.609798,11.289576 3.577329,24.653495 1.96753,13.36392 3.544748,24.470035 3.504927,24.680256 l -0.0724,0.382222 -8.06899,1.759726 c -4.437944,0.967849 -8.455943,1.847106 -8.928885,1.953905 l -0.859896,0.194179 z"
       id="path1" /></g></svg>
