<?xml version="1.0" encoding="UTF-8" standalone="no"?>
<!-- Created with Inkscape (http://www.inkscape.org/) -->

<svg
   width="258.87619mm"
   height="207.96675mm"
   viewBox="0 0 258.87619 207.96675"
   version="1.1"
   id="svg1"
   xml:space="preserve"
   sodipodi:docname="cart-icon.svg"
   inkscape:export-filename="cart-icon.svg"
   inkscape:export-xdpi="96"
   inkscape:export-ydpi="96"
   inkscape:version="1.4.2 (f4327f4, 2025-05-13)"
   xmlns:inkscape="http://www.inkscape.org/namespaces/inkscape"
   xmlns:sodipodi="http://sodipodi.sourceforge.net/DTD/sodipodi-0.dtd"
   xmlns="http://www.w3.org/2000/svg"
   xmlns:svg="http://www.w3.org/2000/svg"><sodipodi:namedview
     id="namedview1"
     pagecolor="#ffffff"
     bordercolor="#000000"
     borderopacity="0.25"
     inkscape:showpageshadow="2"
     inkscape:pageopacity="0.0"
     inkscape:pagecheckerboard="0"
     inkscape:deskcolor="#d1d1d1"
     inkscape:document-units="mm"
     inkscape:zoom="0.93509539"
     inkscape:cx="488.72019"
     inkscape:cy="393.00803"
     inkscape:window-width="3291"
     inkscape:window-height="1745"
     inkscape:window-x="-11"
     inkscape:window-y="-11"
     inkscape:window-maximized="1"
     inkscape:current-layer="svg1" /><defs
     id="defs1" /><g
     id="layer1"
     transform="translate(61.91539,-43.791023)"
     style="display:inline;fill:#ffffff"><path
       style="fill:#ffffff"
       d="m 38.353255,251.52492 c -5.858186,-1.17586 -11.024204,-6.02958 -12.666113,-11.90043 -2.083739,-7.45066 1.453903,-15.73651 8.222076,-19.2577 2.643586,-1.37534 4.817762,-1.90002 7.894177,-1.90505 4.592327,-0.008 8.246878,1.50635 11.540927,4.78073 3.098767,3.08026 4.652877,6.51564 4.9079,10.84899 0.320332,5.44308 -1.883511,10.56621 -5.99626,13.93913 -1.704571,1.39795 -5.088167,3.05207 -7.10271,3.47228 -1.582533,0.3301 -5.206742,0.34185 -6.799997,0.0221 z m 7.155499,-8.03531 c 1.827315,-0.83658 3.681737,-2.70456 4.573432,-4.60688 0.601615,-1.28347 0.706486,-1.86067 0.706486,-3.88845 0,-2.20629 -0.06608,-2.5031 -0.899346,-4.03974 -1.076007,-1.98429 -2.479793,-3.31496 -4.49286,-4.25887 -1.251738,-0.58693 -1.842726,-0.69526 -3.73592,-0.68483 -1.892845,0.0104 -2.486118,0.12691 -3.746694,0.73564 -3.715593,1.79427 -5.822781,5.64468 -5.261654,9.61448 0.521824,3.69173 3.382314,6.82094 7.08904,7.75498 1.543399,0.38891 4.173902,0.10325 5.767516,-0.62633 z m 90.638746,7.78077 c -2.83853,-0.7664 -5.14482,-2.15512 -7.46778,-4.49669 -3.26731,-3.29349 -4.73376,-6.90158 -4.73376,-11.64711 0,-5.32198 2.07085,-9.74038 6.13229,-13.08398 1.66888,-1.37391 4.73144,-2.86037 6.77918,-3.29036 2.02352,-0.42491 5.93072,-0.36245 7.82014,0.125 5.09549,1.31459 9.42349,5.36566 11.42999,10.69865 0.67148,1.78468 0.74621,2.31626 0.76178,5.41839 0.0156,3.10484 -0.055,3.65007 -0.7254,5.60233 -1.63849,4.77161 -5.83316,8.94965 -10.48306,10.4415 -2.56276,0.82222 -6.93316,0.92893 -9.51338,0.23227 z m 8.3413,-7.9405 c 1.9173,-0.94388 3.32909,-2.41329 4.29224,-4.46738 0.94138,-2.00768 0.99697,-5.57911 0.1167,-7.49757 -0.80133,-1.74642 -2.7881,-3.77241 -4.54591,-4.63566 -1.29095,-0.63397 -1.80372,-0.73071 -3.86941,-0.72999 -2.16196,7.5e-4 -2.52997,0.0785 -3.99627,0.8442 -7.62232,3.98046 -6.52882,14.85974 1.72862,17.19812 1.84605,0.52278 4.34141,0.2397 6.27403,-0.71172 z M 21.163014,214.0517 c -5.364214,-1.15228 -9.094075,-4.96539 -10.341497,-10.57231 -0.601265,-2.70258 -0.41962,-6.68 0.41906,-9.176 1.228256,-3.65541 4.207532,-6.92955 7.44931,-8.18658 1.093429,-0.42398 1.499887,-0.70977 1.413998,-0.99419 -0.0663,-0.21954 -1.146392,-4.20917 -2.400213,-8.86584 -2.152091,-7.99282 -4.018561,-14.8188 -6.113294,-22.35729 C 11.084927,152.08048 8.8411933,143.86517 6.6043036,135.64324 4.3674138,127.42131 0.61977511,113.72913 -1.7237825,105.21616 -6.7694794,86.887672 -8.5316359,80.455779 -14.083046,60.104698 c -1.111473,-4.074584 -2.198718,-7.616693 -2.4161,-7.871354 -0.370308,-0.433813 -1.732041,-0.463084 -21.587045,-0.46401 -20.538576,-9.59e-4 -21.217869,-0.01688 -22.037326,-0.516536 -1.299027,-0.792066 -1.781942,-1.727962 -1.791742,-3.472419 -0.0097,-1.727458 0.518141,-2.677813 1.954471,-3.518911 0.814396,-0.4769 1.755791,-0.495756 22.846866,-0.457598 l 21.99747,0.0398 1.352469,0.619181 c 0.743857,0.340549 1.803354,1.08225 2.354436,1.648223 1.8448618,1.894713 1.8179966,1.817824 5.9987847,17.168627 0.8719165,3.201458 1.7619649,6.445107 1.9778852,7.208109 l 0.3925824,1.387275 95.9707347,0.06793 95.97073,0.06793 1.78769,0.874248 c 2.2659,1.108107 4.14653,2.982869 5.25897,5.242557 0.74924,1.521919 0.88337,2.100703 0.96757,4.175027 0.1077,2.653328 0.38495,1.399584 -4.18933,18.944633 -2.04686,7.85095 -4.8256,18.61426 -8.70911,33.73437 -1.04654,4.07459 -2.30212,8.95615 -2.79018,10.84792 -5.4362,21.07104 -7.93369,30.80716 -8.7553,34.13125 -1.2131,4.90802 -2.14819,6.92546 -4.13262,8.916 -1.61906,1.62403 -3.18013,2.54265 -5.48102,3.22533 -1.30552,0.38734 -7.76109,0.42651 -70.511461,0.42785 -45.457166,9.8e-4 -69.401639,0.0924 -70.03154,0.26735 -3.278701,0.91074 -5.010549,4.57527 -4.197836,8.88248 0.397726,2.10787 1.456172,3.62879 3.146095,4.52073 l 1.166094,0.61547 70.932866,9.9e-4 c 70.313052,9.8e-4 70.940402,0.006 71.795182,0.52675 2.45028,1.49395 2.53244,4.97714 0.15416,6.53549 -0.69722,0.45684 -3.77597,0.47936 -71.516283,0.52295 -61.988222,0.0399 -71.01697,-0.004 -72.632103,-0.35064 z M 161.11992,184.825 c 0.61876,-0.17094 1.45351,-0.70663 2.00977,-1.28974 0.84445,-0.88521 1.05974,-1.42487 1.91465,-4.79938 1.28135,-5.05768 7.57947,-29.53879 10.20132,-39.65306 1.15053,-4.43838 2.58074,-9.97479 3.17825,-12.30312 3.31811,-12.92992 5.81424,-22.59415 8.325,-32.23186 1.54755,-5.940335 2.81372,-11.259247 2.81372,-11.819804 0,-1.218987 -0.9813,-2.531563 -2.30664,-3.085326 -0.74072,-0.309491 -15.33161,-0.363177 -94.39524,-0.347319 -51.435501,0.01032 -93.57013434,0.101944 -93.63251843,0.203616 -0.10974483,0.178859 1.61356594,6.65172 6.70595593,25.187983 1.3392741,4.87495 3.2503769,11.8401 4.2468955,15.47813 0.996518,3.63802 3.136789,11.43661 4.756157,17.3302 3.113241,11.33045 4.523673,16.51247 9.25378,33.99896 1.613903,5.96636 3.11248,11.473 3.330172,12.23698 l 0.395803,1.38907 66.072298,-0.001 c 47.416327,-0.001 66.371127,-0.084 67.130627,-0.29385 z M 43.153471,164.21215 c -3.223118,-0.97174 -3.384368,-5.43707 -0.244652,-6.77488 0.711285,-0.30308 9.158452,-0.36271 51.329168,-0.36237 47.529033,3.9e-4 50.531553,0.0274 51.398533,0.46302 1.14343,0.57448 2.12208,1.99592 2.12153,3.08143 -5.4e-4,1.08478 -0.74597,2.50344 -1.67261,3.18321 l -0.74698,0.54797 -50.714475,0.0448 c -27.892964,0.0246 -51.054695,-0.0578 -51.470514,-0.18316 z m -5.1181,-26.17695 c -2.269685,-1.38391 -2.175976,-5.0072 0.160752,-6.21557 0.707995,-0.36612 6.751601,-0.40972 56.790986,-0.40972 62.878161,0 57.273731,-0.19265 58.337741,2.0053 0.86266,1.78202 0.31701,3.56572 -1.41357,4.62092 -0.83106,0.50673 -1.80517,0.51555 -56.937191,0.51555 -55.16661,0 -56.105637,-0.009 -56.938718,-0.51648 z m -3.394903,-25.67469 c -1.311911,-0.6494 -1.975755,-1.71639 -1.975755,-3.1756 0,-1.46783 0.672927,-2.54014 1.995985,-3.18062 1.067968,-0.517 1.838802,-0.52355 61.596049,-0.52355 66.198963,0 61.536753,-0.1164 62.957303,1.57182 0.54636,0.64932 0.71525,1.13236 0.71525,2.04568 0,1.55115 -0.65048,2.61594 -1.99599,3.26729 -1.06798,0.517 -1.83879,0.52354 -61.653694,0.52334 -60.000246,-2.1e-4 -60.582269,-0.005 -61.639148,-0.52836 z"
       id="path1" /></g><g
     id="g2"
     transform="translate(61.91539,-43.791023)"
     style="display:inline;fill:#3c9fdd;fill-opacity:1"><path
       style="fill:#3c9fdd;fill-opacity:1"
       d="m 38.353255,251.52492 c -5.858186,-1.17586 -11.024204,-6.02958 -12.666113,-11.90043 -2.083739,-7.45066 1.453903,-15.73651 8.222076,-19.2577 2.643586,-1.37534 4.817762,-1.90002 7.894177,-1.90505 4.592327,-0.008 8.246878,1.50635 11.540927,4.78073 3.098767,3.08026 4.652877,6.51564 4.9079,10.84899 0.320332,5.44308 -1.883511,10.56621 -5.99626,13.93913 -1.704571,1.39795 -5.088167,3.05207 -7.10271,3.47228 -1.582533,0.3301 -5.206742,0.34185 -6.799997,0.0221 z m 7.155499,-8.03531 c 1.827315,-0.83658 3.681737,-2.70456 4.573432,-4.60688 0.601615,-1.28347 0.706486,-1.86067 0.706486,-3.88845 0,-2.20629 -0.06608,-2.5031 -0.899346,-4.03974 -1.076007,-1.98429 -2.479793,-3.31496 -4.49286,-4.25887 -1.251738,-0.58693 -1.842726,-0.69526 -3.73592,-0.68483 -1.892845,0.0104 -2.486118,0.12691 -3.746694,0.73564 -3.715593,1.79427 -5.822781,5.64468 -5.261654,9.61448 0.521824,3.69173 3.382314,6.82094 7.08904,7.75498 1.543399,0.38891 4.173902,0.10325 5.767516,-0.62633 z m 90.638746,7.78077 c -2.83853,-0.7664 -5.14482,-2.15512 -7.46778,-4.49669 -3.26731,-3.29349 -4.73376,-6.90158 -4.73376,-11.64711 0,-5.32198 2.07085,-9.74038 6.13229,-13.08398 1.66888,-1.37391 4.73144,-2.86037 6.77918,-3.29036 2.02352,-0.42491 5.93072,-0.36245 7.82014,0.125 5.09549,1.31459 9.42349,5.36566 11.42999,10.69865 0.67148,1.78468 0.74621,2.31626 0.76178,5.41839 0.0156,3.10484 -0.055,3.65007 -0.7254,5.60233 -1.63849,4.77161 -5.83316,8.94965 -10.48306,10.4415 -2.56276,0.82222 -6.93316,0.92893 -9.51338,0.23227 z m 8.3413,-7.9405 c 1.9173,-0.94388 3.32909,-2.41329 4.29224,-4.46738 0.94138,-2.00768 0.99697,-5.57911 0.1167,-7.49757 -0.80133,-1.74642 -2.7881,-3.77241 -4.54591,-4.63566 -1.29095,-0.63397 -1.80372,-0.73071 -3.86941,-0.72999 -2.16196,7.5e-4 -2.52997,0.0785 -3.99627,0.8442 -7.62232,3.98046 -6.52882,14.85974 1.72862,17.19812 1.84605,0.52278 4.34141,0.2397 6.27403,-0.71172 z M 21.163014,214.0517 c -5.364214,-1.15228 -9.094075,-4.96539 -10.341497,-10.57231 -0.601265,-2.70258 -0.41962,-6.68 0.41906,-9.176 1.228256,-3.65541 4.207532,-6.92955 7.44931,-8.18658 1.093429,-0.42398 1.499887,-0.70977 1.413998,-0.99419 -0.0663,-0.21954 -1.146392,-4.20917 -2.400213,-8.86584 -2.152091,-7.99282 -4.018561,-14.8188 -6.113294,-22.35729 C 11.084927,152.08048 8.8411933,143.86517 6.6043036,135.64324 4.3674138,127.42131 0.61977511,113.72913 -1.7237825,105.21616 -6.7694794,86.887672 -8.5316359,80.455779 -14.083046,60.104698 c -1.111473,-4.074584 -2.198718,-7.616693 -2.4161,-7.871354 -0.370308,-0.433813 -1.732041,-0.463084 -21.587045,-0.46401 -20.538576,-9.59e-4 -21.217869,-0.01688 -22.037326,-0.516536 -1.299027,-0.792066 -1.781942,-1.727962 -1.791742,-3.472419 -0.0097,-1.727458 0.518141,-2.677813 1.954471,-3.518911 0.814396,-0.4769 1.755791,-0.495756 22.846866,-0.457598 l 21.99747,0.0398 1.352469,0.619181 c 0.743857,0.340549 1.803354,1.08225 2.354436,1.648223 1.8448618,1.894713 1.8179966,1.817824 5.9987847,17.168627 0.8719165,3.201458 1.7619649,6.445107 1.9778852,7.208109 l 0.3925824,1.387275 95.9707347,0.06793 95.97073,0.06793 1.78769,0.874248 c 2.2659,1.108107 4.14653,2.982869 5.25897,5.242557 0.74924,1.521919 0.88337,2.100703 0.96757,4.175027 0.1077,2.653328 0.38495,1.399584 -4.18933,18.944633 -2.04686,7.85095 -4.8256,18.61426 -8.70911,33.73437 -1.04654,4.07459 -2.30212,8.95615 -2.79018,10.84792 -5.4362,21.07104 -7.93369,30.80716 -8.7553,34.13125 -1.2131,4.90802 -2.14819,6.92546 -4.13262,8.916 -1.61906,1.62403 -3.18013,2.54265 -5.48102,3.22533 -1.30552,0.38734 -7.76109,0.42651 -70.511461,0.42785 -45.457166,9.8e-4 -69.401639,0.0924 -70.03154,0.26735 -3.278701,0.91074 -5.010549,4.57527 -4.197836,8.88248 0.397726,2.10787 1.456172,3.62879 3.146095,4.52073 l 1.166094,0.61547 70.932866,9.9e-4 c 70.313052,9.8e-4 70.940402,0.006 71.795182,0.52675 2.45028,1.49395 2.53244,4.97714 0.15416,6.53549 -0.69722,0.45684 -3.77597,0.47936 -71.516283,0.52295 -61.988222,0.0399 -71.01697,-0.004 -72.632103,-0.35064 z M 161.11992,184.825 c 0.61876,-0.17094 1.45351,-0.70663 2.00977,-1.28974 0.84445,-0.88521 1.05974,-1.42487 1.91465,-4.79938 1.28135,-5.05768 7.57947,-29.53879 10.20132,-39.65306 1.15053,-4.43838 2.58074,-9.97479 3.17825,-12.30312 3.31811,-12.92992 5.81424,-22.59415 8.325,-32.23186 1.54755,-5.940335 2.81372,-11.259247 2.81372,-11.819804 0,-1.218987 -0.9813,-2.531563 -2.30664,-3.085326 -0.74072,-0.309491 -15.33161,-0.363177 -94.39524,-0.347319 -51.435501,0.01032 -93.57013434,0.101944 -93.63251843,0.203616 -0.10974483,0.178859 1.61356594,6.65172 6.70595593,25.187983 1.3392741,4.87495 3.2503769,11.8401 4.2468955,15.47813 0.996518,3.63802 3.136789,11.43661 4.756157,17.3302 3.113241,11.33045 4.523673,16.51247 9.25378,33.99896 1.613903,5.96636 3.11248,11.473 3.330172,12.23698 l 0.395803,1.38907 66.072298,-0.001 c 47.416327,-0.001 66.371127,-0.084 67.130627,-0.29385 z M 43.153471,164.21215 c -3.223118,-0.97174 -3.384368,-5.43707 -0.244652,-6.77488 0.711285,-0.30308 9.158452,-0.36271 51.329168,-0.36237 47.529033,3.9e-4 50.531553,0.0274 51.398533,0.46302 1.14343,0.57448 2.12208,1.99592 2.12153,3.08143 -5.4e-4,1.08478 -0.74597,2.50344 -1.67261,3.18321 l -0.74698,0.54797 -50.714475,0.0448 c -27.892964,0.0246 -51.054695,-0.0578 -51.470514,-0.18316 z m -5.1181,-26.17695 c -2.269685,-1.38391 -2.175976,-5.0072 0.160752,-6.21557 0.707995,-0.36612 6.751601,-0.40972 56.790986,-0.40972 62.878161,0 57.273731,-0.19265 58.337741,2.0053 0.86266,1.78202 0.31701,3.56572 -1.41357,4.62092 -0.83106,0.50673 -1.80517,0.51555 -56.937191,0.51555 -55.16661,0 -56.105637,-0.009 -56.938718,-0.51648 z m -3.394903,-25.67469 c -1.311911,-0.6494 -1.975755,-1.71639 -1.975755,-3.1756 0,-1.46783 0.672927,-2.54014 1.995985,-3.18062 1.067968,-0.517 1.838802,-0.52355 61.596049,-0.52355 66.198963,0 61.536753,-0.1164 62.957303,1.57182 0.54636,0.64932 0.71525,1.13236 0.71525,2.04568 0,1.55115 -0.65048,2.61594 -1.99599,3.26729 -1.06798,0.517 -1.83879,0.52354 -61.653694,0.52334 -60.000246,-2.1e-4 -60.582269,-0.005 -61.639148,-0.52836 z"
       id="path2" /></g></svg>
