<?xml version="1.0" encoding="UTF-8" standalone="no"?>
<!-- Created with Inkscape (http://www.inkscape.org/) -->

<svg
   width="92.604164mm"
   height="92.604164mm"
   viewBox="0 0 92.604164 92.604164"
   version="1.1"
   id="svg1"
   xml:space="preserve"
   xmlns="http://www.w3.org/2000/svg"
   xmlns:svg="http://www.w3.org/2000/svg"><defs
     id="defs1" /><g
     id="layer1"
     transform="translate(-18.44158,-14.36267)"><path
       style="fill:#000000"
       d="m 33.390538,82.917304 c -0.582084,-0.269496 -1.379439,-0.832428 -1.771902,-1.25096 -1.583552,-1.68874 -1.535927,-1.033043 -1.529579,-21.05924 0.0055,-17.278015 0.03395,-18.391681 0.495803,-19.389226 0.269496,-0.582084 0.832428,-1.37944 1.25096,-1.771902 1.730633,-1.622835 -0.142098,-1.535942 32.96549,-1.529579 28.867119,0.0055 30.285095,0.02801 31.295476,0.495803 0.582083,0.269496 1.379439,0.832428 1.771902,1.25096 1.582678,1.687808 1.53539,1.040979 1.53539,21.001592 0,19.960613 0.04729,19.313784 -1.53539,21.001592 -0.392463,0.418532 -1.189819,0.981464 -1.771902,1.25096 -1.010658,0.467919 -2.423049,0.489992 -31.353124,0.489992 -28.930075,0 -30.342467,-0.02207 -31.353124,-0.489992 z M 95.45568,79.470521 96.229078,78.697123 V 67.431979 56.166835 H 64.743662 33.258246 v 11.265144 11.265144 l 0.773397,0.773398 0.773398,0.773397 H 64.743662 94.682283 Z M 39.671449,75.128235 c -3.974869,-1.441568 -5.299013,-6.713497 -2.505835,-9.976697 1.327886,-1.551336 2.738575,-2.194117 4.867824,-2.218024 0.970053,-0.01089 1.849101,0.06549 1.95344,0.169748 0.104338,0.104253 -0.1811,0.611875 -0.634307,1.12805 -1.283334,1.461637 -1.703045,2.49792 -1.834911,4.530469 -0.105902,1.632325 -0.02724,2.090312 0.598515,3.484678 0.396243,0.882947 1.00242,1.870262 1.34706,2.194035 0.34464,0.323772 0.56373,0.690433 0.486866,0.814801 -0.203742,0.329662 -3.270427,0.238593 -4.278652,-0.12706 z m 6.250864,-0.384142 c -4.467924,-2.321124 -4.44325,-8.859777 0.04214,-11.167956 4.224489,-2.173917 9.245896,0.896039 9.252732,5.656876 0.0069,4.773687 -4.999974,7.742316 -9.294874,5.51108 z M 60.128457,70.13088 c -0.565582,-0.807481 -0.516329,-1.410704 0.167179,-2.047488 0.526817,-0.490805 0.920662,-0.539474 4.365624,-0.539474 3.433791,0 3.835869,0.0493 4.315735,0.529167 0.660349,0.660349 0.680316,1.633281 0.04531,2.207951 -0.405307,0.366799 -1.133043,0.437882 -4.482913,0.437882 -3.832578,0 -4.016206,-0.02448 -4.410937,-0.588038 z m 11.906249,0 c -0.552166,-0.788328 -0.518753,-1.31413 0.127596,-2.007905 0.506176,-0.543316 0.772,-0.579057 4.306753,-0.579057 4.241105,0 4.943356,0.224967 4.943356,1.583605 0,1.456486 -0.415281,1.591395 -4.898687,1.591395 -3.902931,0 -4.083769,-0.02374 -4.479018,-0.588038 z m 11.90625,0 c -0.511347,-0.73005 -0.51022,-1.243697 0.0042,-1.925503 0.361245,-0.478768 0.765184,-0.537351 4.241163,-0.615098 4.374108,-0.09784 5.132318,0.12795 5.132318,1.52834 0,1.466229 -0.410403,1.600299 -4.898687,1.600299 -3.902931,0 -4.08377,-0.02374 -4.479018,-0.588038 z M 96.229078,44.810053 c 0,-1.869304 -0.07419,-2.184538 -0.684978,-2.910417 l -0.684978,-0.81405 h -30.11546 -30.11546 l -0.684978,0.81405 c -0.610786,0.725879 -0.684978,1.041113 -0.684978,2.910417 v 2.096366 h 31.485416 31.485416 z"
       id="path1" /></g></svg>
