<?xml version="1.0" encoding="UTF-8" standalone="no"?>
<!-- Created with Inkscape (http://www.inkscape.org/) -->

<svg
   width="195.51186mm"
   height="205.68826mm"
   viewBox="0 0 195.51186 205.68827"
   version="1.1"
   id="svg1"
   xml:space="preserve"
   xmlns="http://www.w3.org/2000/svg"
   xmlns:svg="http://www.w3.org/2000/svg"><defs
     id="defs1" /><g
     id="layer1"
     transform="translate(54.009333,67.605349)"><path
       style="fill:#3c9fdd;stroke:none;stroke-width:1.52724"
       d="M 370.43866,0.43848429 C 342.13601,8.2292069 315.8349,22.305952 288.61809,33.253214 195.28001,74.517064 101.26828,114.38583 8.7100273,157.33531 0.41866532,165.7666 3.5965234,179.74729 1.9388759,190.5408 -0.14405257,314.48275 0.68250953,438.46202 -0.24085637,562.41871 c 0.32963485,12.86879 -3.04918923,27.48598 7.64437947,37.23087 23.2589759,15.1033 49.4517049,25.36223 73.9423629,38.3846 93.782824,46.06569 187.200144,93.00412 281.495354,137.94871 15.30184,1.64816 28.79871,-9.13631 42.69406,-14.13291 103.39654,-48.95296 206.94965,-97.5921 310.51843,-146.16738 9.44111,-5.4265 24.76387,-11.23821 21.60206,-24.64163 0,-141.13426 0,-282.26852 0,-423.40278 C 721.60391,150.87264 697.96942,145.02153 677.8701,134.56392 581.33553,91.530125 485.58798,46.682386 388.36282,5.2260164 382.56848,3.181764 376.72278,0.23840073 370.43866,0.43848429 Z m 0.83819,29.05331071 c 31.3694,11.258993 61.37823,26.621875 92.11198,39.70537 75.3629,33.943175 151.25548,66.941255 226.06949,101.963825 -9.01499,8.41635 -22.68867,11.96 -33.68348,17.9639 -24.62047,10.84895 -48.996,23.3369 -74.0166,32.65865 C 518.21126,193.8726 456.6706,161.52782 394.20623,131.27443 354.83992,111.25853 314.36915,93.035353 275.81853,71.636991 c 8.80922,-7.293454 21.50746,-10.681379 31.89026,-16.110672 21.05711,-8.493963 41.24343,-19.91835 63.09675,-26.037507 z M 244.68018,89.832596 c 98.96053,48.495694 198.29332,96.278434 296.68381,145.910864 8.29316,2.2073 -0.52579,5.42977 -3.74449,7.03653 -56.43861,26.93889 -112.82503,54.32369 -170.05934,79.38363 C 285.36978,284.24666 204.18932,244.11735 122.38325,205.35795 98.87456,193.60366 73.86637,182.71792 51.517425,169.89922 98.345043,146.89241 146.96482,127.55796 194.50844,106.02378 c 14.54142,-6.388374 29.08286,-12.776748 43.6243,-19.165121 2.18247,0.991312 4.36496,1.982625 6.54744,2.973937 z M 31.03693,194.51698 c 108.20479,50.47474 215.53081,102.8297 323.28221,154.2689 -0.24801,131.14857 0.60868,262.31432 -0.77555,393.45162 C 247.9706,689.67722 142.77037,636.35205 36.874437,584.44283 26.149302,581.95454 26.733892,572.35797 27.490278,563.34189 c 0,-123.23794 0,-246.47587 0,-369.71381 1.182218,0.2963 2.364434,0.5926 3.546652,0.8889 z m 681.19273,156.6045 c 0.23747,78.61578 1.81103,157.27753 -1.30053,235.8568 -101.60492,49.09026 -204.06091,96.41669 -305.99931,144.81493 -7.67194,3.3019 -15.57776,7.71319 -23.19498,10.25339 -2.46146,-91.95729 -1.01716,-184.01517 -1.45266,-276.01241 0,-39.12354 0,-78.24708 0,-117.3706 34.15719,-15.32453 67.22451,-33.48578 102.06839,-47.03713 2.99517,31.7548 0.21659,63.98153 3.88074,95.64026 7.12757,11.03381 21.09042,1.34817 30.03733,-2.00811 24.82578,-12.02836 50.79356,-22.20409 74.00871,-37.23175 1.05901,-36.35819 0.26358,-72.88111 3.24241,-109.11993 38.72297,-19.00264 78.26859,-36.31018 117.40937,-54.44066 0.43351,52.21841 0.86703,104.4368 1.30053,156.65521 z M 565.07793,302.33936 c 0,13.32953 0,26.65905 0,39.98858 -18.04199,8.38876 -36.28677,18.08432 -54.30641,25.52455 -1.17694,-26.9604 -0.47345,-53.97358 -0.67414,-80.95552 18.32186,-8.11557 35.77885,-18.65788 54.98055,-24.5432 0,13.32854 0,26.65706 0,39.98559 z"
       id="path17"
       transform="matrix(0.26458333,0,0,0.26458333,-54.009333,-67.605349)" /><path
       style="fill:#3c9fdd;stroke:none;stroke-width:1.52724"
       d="m 658.38857,487.10231 c -25.73552,6.35306 -48.97804,20.32699 -73.37858,30.45958 -14.87499,7.78071 -31.64929,13.1263 -44.77651,23.63804 -7.81716,8.81039 3.46539,24.52974 14.3954,17.71536 36.38731,-14.02204 71.68152,-30.96584 106.62625,-48.25116 12.14978,-3.31912 8.51107,-23.12277 -2.86656,-23.56182 z"
       id="path18"
       transform="matrix(0.26458333,0,0,0.26458333,-54.009333,-67.605349)" /><path
       style="fill:#3c9fdd;stroke:none;stroke-width:1.52724"
       d="m 657.03435,547.22834 c -26.20295,7.82132 -50.28394,21.80965 -75.4473,32.49141 -14.19772,7.62774 -30.8547,12.14843 -42.88678,23.04993 -4.59603,9.83364 6.3971,23.98413 16.80984,16.89063 36.21721,-14.97831 72.09322,-31.13833 106.70849,-49.52042 11.54522,-5.14962 6.90485,-22.88246 -5.18425,-22.91155 z"
       id="path19"
       transform="matrix(0.26458333,0,0,0.26458333,-54.009333,-67.605349)" /></g></svg>
